<svg width="37" height="37" viewBox="0 0 37 37" fill="none" xmlns="http://www.w3.org/2000/svg">
<path d="M36.75 34.9824L30.8894 29.1219C32.4558 27.1058 33.1948 24.5685 32.9561 22.0266C32.7173 19.4848 31.5187 17.1295 29.6043 15.4403C27.6899 13.7512 25.2037 12.8553 22.6518 12.9349C20.1 13.0146 17.6745 14.064 15.8692 15.8692C14.064 17.6745 13.0146 20.1 12.9349 22.6518C12.8553 25.2037 13.7512 27.6899 15.4403 29.6043C17.1295 31.5187 19.4848 32.7173 22.0266 32.9561C24.5685 33.1948 27.1058 32.4558 29.1219 30.8894L34.9824 36.75L36.75 34.9824ZM23 30.5C21.5166 30.5 20.0666 30.0601 18.8332 29.236C17.5999 28.4119 16.6386 27.2406 16.0709 25.8701C15.5032 24.4997 15.3547 22.9917 15.6441 21.5368C15.9335 20.082 16.6478 18.7456 17.6967 17.6967C18.7456 16.6478 20.082 15.9335 21.5368 15.6441C22.9917 15.3547 24.4997 15.5032 25.8701 16.0709C27.2406 16.6386 28.4119 17.5999 29.236 18.8332C30.0601 20.0666 30.5 21.5166 30.5 23C30.4978 24.9885 29.7069 26.8948 28.3009 28.3009C26.8948 29.7069 24.9885 30.4978 23 30.5Z" fill="#868E96"/>
<path d="M8 30.5H3C2.33717 30.4993 1.70169 30.2357 1.233 29.767C0.76431 29.2983 0.500695 28.6628 0.5 28V23H3V28H8V30.5Z" fill="#868E96"/>
<path d="M3 13H0.5V18H3V13Z" fill="#868E96"/>
<path d="M30.5 8H28V3H23V0.5H28C28.6628 0.500695 29.2983 0.76431 29.767 1.233C30.2357 1.70169 30.4993 2.33717 30.5 3V8Z" fill="#868E96"/>
<path d="M18 0.5H13V3H18V0.5Z" fill="#868E96"/>
<path d="M3 8H0.5V3C0.500695 2.33717 0.76431 1.70169 1.233 1.233C1.70169 0.76431 2.33717 0.500695 3 0.5H8V3H3V8Z" fill="#868E96"/>
</svg>
