<svg width="28" height="18" viewBox="0 0 28 18" fill="none" xmlns="http://www.w3.org/2000/svg">
<path d="M17.75 0.5V2.375H23.9243L15.875 10.4243L11.8503 6.39969C11.7633 6.3126 11.66 6.24351 11.5462 6.19637C11.4325 6.14923 11.3106 6.12497 11.1875 6.12497C11.0644 6.12497 10.9425 6.14923 10.8288 6.19637C10.715 6.24351 10.6117 6.3126 10.5247 6.39969L0.875 16.0493L2.20072 17.375L11.1875 8.38822L15.2122 12.4128C15.2992 12.4999 15.4025 12.569 15.5163 12.6161C15.63 12.6633 15.7519 12.6875 15.875 12.6875C15.9981 12.6875 16.12 12.6633 16.2337 12.6161C16.3475 12.569 16.4508 12.4999 16.5378 12.4128L25.25 3.70072V9.875H27.125V0.5H17.75Z" fill="#6FA9CD"/>
</svg>
