<svg width="24" height="28" viewBox="0 0 24 28" fill="none" xmlns="http://www.w3.org/2000/svg">
<path d="M21.375 0.875H4.5C4.00272 0.875 3.52581 1.07254 3.17417 1.42417C2.82254 1.77581 2.625 2.25272 2.625 2.75V6.5H0.75V8.375H2.625V13.0625H0.75V14.9375H2.625V19.625H0.75V21.5H2.625V25.25C2.625 25.7473 2.82254 26.2242 3.17417 26.5758C3.52581 26.9275 4.00272 27.125 4.5 27.125H21.375C21.8723 27.125 22.3492 26.9275 22.7008 26.5758C23.0525 26.2242 23.25 25.7473 23.25 25.25V2.75C23.25 2.25272 23.0525 1.77581 22.7008 1.42417C22.3492 1.07254 21.8723 0.875 21.375 0.875ZM21.375 25.25H4.5V21.5H6.375V19.625H4.5V14.9375H6.375V13.0625H4.5V8.375H6.375V6.5H4.5V2.75H21.375V25.25Z" fill="white"/>
<path d="M17.625 6.5H10.125V8.375H17.625V6.5Z" fill="white"/>
<path d="M17.625 13.0625H10.125V14.9375H17.625V13.0625Z" fill="white"/>
<path d="M17.625 19.625H10.125V21.5H17.625V19.625Z" fill="white"/>
</svg>
