<svg width="23" height="26" viewBox="0 0 23 26" fill="none" xmlns="http://www.w3.org/2000/svg">
<path d="M11.9376 9.3125H10.0626V17.75H11.9376V9.3125Z" fill="#6FA9CD"/>
<path d="M13.8126 0.875H8.1876V2.75H13.8126V0.875Z" fill="#6FA9CD"/>
<path d="M22.2501 7.4375L20.9188 6.11563L18.8095 8.225C17.0828 6.23097 14.6542 4.97884 12.0284 4.72879C9.40253 4.47873 6.78129 5.24997 4.70928 6.88226C2.63726 8.51455 1.27379 10.8824 0.90215 13.4938C0.530509 16.1052 1.17928 18.7594 2.71365 20.905C4.24803 23.0505 6.55005 24.5224 9.1414 25.0148C11.7328 25.5072 14.4142 24.9823 16.6286 23.5492C18.8431 22.116 20.4202 19.8848 21.0323 17.3191C21.6445 14.7533 21.2446 12.0504 19.9157 9.77187L22.2501 7.4375ZM11.0001 23.375C9.33132 23.375 7.70001 22.8801 6.31247 21.953C4.92493 21.0259 3.84348 19.7081 3.20486 18.1664C2.56625 16.6246 2.39916 14.9281 2.72472 13.2914C3.05028 11.6547 3.85388 10.1513 5.03388 8.97129C6.21389 7.79128 7.71731 6.98769 9.35402 6.66212C10.9907 6.33656 12.6872 6.50365 14.229 7.14227C15.7707 7.78088 17.0885 8.86234 18.0156 10.2499C18.9427 11.6374 19.4376 13.2687 19.4376 14.9375C19.4376 17.1753 18.5486 19.3214 16.9663 20.9037C15.384 22.4861 13.2379 23.375 11.0001 23.375Z" fill="#6FA9CD"/>
</svg>
