<svg width="27" height="28" viewBox="0 0 27 28" fill="none" xmlns="http://www.w3.org/2000/svg">
<path d="M19.0453 18.6875C20.5921 16.8508 21.4396 14.5263 21.4379 12.125C21.4397 10.0591 20.8204 8.04028 19.6604 6.33076C18.5003 4.62125 16.8532 3.29995 14.9327 2.53841C13.0122 1.77688 10.9072 1.61027 8.89081 2.06023C6.87446 2.51019 5.03995 3.55593 3.62544 5.06169V0.875H1.75044V8.375H9.25044V6.5H4.87419C6.13885 5.10233 7.83611 4.16967 9.69397 3.8515C11.5518 3.53333 13.4627 3.84807 15.1204 4.74527C16.7781 5.64248 18.0866 7.0702 18.8362 8.79964C19.5858 10.5291 19.7331 12.4601 19.2545 14.2832C18.7759 16.1064 17.6992 17.7161 16.1968 18.8544C14.6944 19.9927 12.8534 20.5936 10.9688 20.561C9.08414 20.5283 7.26504 19.8639 5.80299 18.6743C4.34093 17.4846 3.32057 15.8386 2.90544 14H0.992188C1.4321 16.3674 2.68574 18.5066 4.5362 20.0474C6.38665 21.5882 8.71749 22.4336 11.1254 22.4375C13.5267 22.4392 15.8512 21.5916 17.6879 20.0448L24.7997 27.125L26.1254 25.7993L19.0453 18.6875Z" fill="white"/>
</svg>
