<svg width="25" height="30" viewBox="0 0 25 30" fill="none" xmlns="http://www.w3.org/2000/svg">
<path d="M16.7501 7.5H14.8751C14.8751 6.2568 14.3812 5.06451 13.5022 4.18544C12.6231 3.30636 11.4308 2.8125 10.1876 2.8125C8.9444 2.8125 7.75212 3.30636 6.87304 4.18544C5.99397 5.06451 5.50011 6.2568 5.50011 7.5H3.62511C3.62511 5.75952 4.31651 4.09032 5.54722 2.85961C6.77793 1.6289 8.44712 0.9375 10.1876 0.9375C11.9281 0.9375 13.5973 1.6289 14.828 2.85961C16.0587 4.09032 16.7501 5.75952 16.7501 7.5Z" fill="white"/>
<path d="M21.4376 14.0625C20.9533 14.0642 20.4779 14.1936 20.0595 14.4375C19.8067 14.0366 19.4568 13.7061 19.0421 13.4766C18.6274 13.2472 18.1615 13.1262 17.6876 13.125C17.2033 13.1267 16.7279 13.2561 16.3095 13.5C15.9684 12.9633 15.4555 12.558 14.8545 12.3503C14.2535 12.1426 13.5998 12.1447 13.0001 12.3563V7.5C13.0001 6.75408 12.7038 6.03871 12.1763 5.51126C11.6489 4.98382 10.9335 4.6875 10.1876 4.6875C9.44169 4.6875 8.72632 4.98382 8.19887 5.51126C7.67142 6.03871 7.37511 6.75408 7.37511 7.5V17.9063L5.28448 16.4812C4.80523 16.1243 4.22265 15.9334 3.62511 15.9375C3.06727 15.9361 2.52163 16.1007 2.05755 16.4102C1.59348 16.7197 1.23193 17.1603 1.01887 17.6758C0.805822 18.1914 0.750891 18.7586 0.861066 19.3055C0.97124 19.8523 1.24154 20.354 1.63761 20.7469L9.13761 27.5906C10.1994 28.541 11.5751 29.0652 13.0001 29.0625H17.6876C19.4281 29.0625 21.0973 28.3711 22.328 27.1404C23.5587 25.9097 24.2501 24.2405 24.2501 22.5V16.875C24.2501 16.1291 23.9538 15.4137 23.4263 14.8863C22.8989 14.3588 22.1835 14.0625 21.4376 14.0625ZM22.3751 22.5C22.3751 23.7432 21.8812 24.9355 21.0022 25.8146C20.1231 26.6936 18.9308 27.1875 17.6876 27.1875H13.0001C12.0525 27.199 11.133 26.8658 10.4126 26.25L2.95948 19.4063C2.78628 19.2316 2.68864 18.9959 2.68761 18.75C2.68761 18.5759 2.73609 18.4052 2.82762 18.2571C2.91915 18.109 3.05012 17.9893 3.20584 17.9115C3.36157 17.8336 3.5359 17.8007 3.7093 17.8163C3.8827 17.8319 4.04832 17.8955 4.18761 18L9.25011 21.4687V7.5C9.25011 7.25136 9.34888 7.0129 9.52469 6.83709C9.70051 6.66127 9.93897 6.5625 10.1876 6.5625C10.4362 6.5625 10.6747 6.66127 10.8505 6.83709C11.0263 7.0129 11.1251 7.25136 11.1251 7.5V17.8125H13.0001V15C13.0001 14.7514 13.0989 14.5129 13.2747 14.3371C13.4505 14.1613 13.689 14.0625 13.9376 14.0625C14.1862 14.0625 14.4247 14.1613 14.6005 14.3371C14.7763 14.5129 14.8751 14.7514 14.8751 15V17.8125H16.7501V15.9375C16.7501 15.6889 16.8489 15.4504 17.0247 15.2746C17.2005 15.0988 17.439 15 17.6876 15C17.9362 15 18.1747 15.0988 18.3505 15.2746C18.5263 15.4504 18.6251 15.6889 18.6251 15.9375V17.8125H20.5001V16.875C20.5001 16.6264 20.5989 16.3879 20.7747 16.2121C20.9505 16.0363 21.189 15.9375 21.4376 15.9375C21.6862 15.9375 21.9247 16.0363 22.1005 16.2121C22.2763 16.3879 22.3751 16.6264 22.3751 16.875V22.5Z" fill="white"/>
</svg>
